<?xml version="1.0" encoding="UTF-8" standalone="no"?>
<!-- Created with Inkscape (http://www.inkscape.org/) -->

<svg
   width="170mm"
   height="170mm"
   viewBox="0 0 170 170"
   version="1.1"
   id="svg1"
   xml:space="preserve"
   inkscape:version="1.3.2 (091e20e, 2023-11-25, custom)"
   sodipodi:docname="juggle.svg"
   xmlns:inkscape="http://www.inkscape.org/namespaces/inkscape"
   xmlns:sodipodi="http://sodipodi.sourceforge.net/DTD/sodipodi-0.dtd"
   xmlns="http://www.w3.org/2000/svg"
   xmlns:svg="http://www.w3.org/2000/svg"><sodipodi:namedview
     id="namedview1"
     pagecolor="#ffffff"
     bordercolor="#000000"
     borderopacity="0.25"
     inkscape:showpageshadow="2"
     inkscape:pageopacity="0.0"
     inkscape:pagecheckerboard="0"
     inkscape:deskcolor="#d1d1d1"
     inkscape:document-units="mm"
     inkscape:zoom="0.58264757"
     inkscape:cx="536.34481"
     inkscape:cy="553.50784"
     inkscape:window-width="1920"
     inkscape:window-height="1166"
     inkscape:window-x="-11"
     inkscape:window-y="-11"
     inkscape:window-maximized="1"
     inkscape:current-layer="layer1" /><defs
     id="defs1" /><g
     inkscape:label="Layer 1"
     inkscape:groupmode="layer"
     id="layer1"
     transform="translate(-31.189042,-53.476425)"><path
       style="fill:#ffffff;stroke:none"
       d="m 96.725025,221.60649 c -0.30291,-0.12375 -0.868457,-0.60257 -1.256771,-1.06406 -0.92473,-1.09898 -0.917052,-1.98852 0.07594,-8.79776 2.2217,-15.23488 3.193807,-22.24437 3.098206,-22.33998 -0.03656,-0.0365 -3.739227,0.8217 -8.228154,1.90724 -10.460949,2.52973 -11.90286,2.57746 -16.064695,0.53183 -2.244073,-1.10302 -3.7531,-2.74153 -7.083977,-7.69185 -1.662485,-2.47077 -3.636321,-5.38528 -4.386303,-6.47669 -1.188195,-1.72911 -3.753347,-5.51899 -10.78712,-15.93739 -2.241596,-3.32025 -2.866092,-4.97203 -3.027385,-8.0074 -0.107955,-2.0316 -0.03036,-2.68053 0.528454,-4.41946 2.482823,-7.72608 10.985418,-11.31535 18.225087,-7.69349 1.074035,0.53732 2.434555,1.51118 3.222686,2.30679 0.750171,0.7573 3.443206,4.46411 5.984521,8.23736 9.422928,13.99083 8.845642,13.22059 9.843997,13.13435 0.779548,-0.0673 4.669847,-0.97214 13.316679,-3.09718 9.13259,-2.24442 11.91556,-2.84013 15.09395,-3.23098 5.30447,-0.65229 7.74844,-0.28232 24.01248,3.63501 l 13.21196,3.18221 2.62671,-1.66168 c 1.44469,-0.91392 3.90102,-2.4762 5.45851,-3.47171 1.55749,-0.99552 3.35908,-2.12662 4.00352,-2.51355 0.64445,-0.38693 2.19226,-1.47162 3.43959,-2.41043 3.91051,-2.94329 7.72543,-3.96392 11.50102,-3.07696 4.70546,1.1054 8.46641,4.61258 9.79211,9.13139 0.54159,1.84606 0.54159,5.33393 0,7.17999 -0.47685,1.62542 -1.60382,3.68489 -2.68541,4.90743 -0.40119,0.45348 -2.45585,2.05081 -4.5659,3.54963 -4.90074,3.4811 -14.39765,10.44171 -16.80104,12.31407 -2.56667,1.99955 -5.34599,3.05513 -8.46667,3.21563 -2.0288,0.10434 -2.85118,0.005 -5.55625,-0.67285 -8.62194,-2.15972 -11.26072,-2.7668 -11.40392,-2.6236 -0.20675,0.20676 -0.16917,0.3656 3.70333,15.65067 3.6868,14.55213 3.62732,14.08393 1.98862,15.65403 l -0.80494,0.77125 -23.72904,0.0516 c -13.05098,0.0284 -23.976882,-0.0497 -24.279793,-0.17342 z m 41.845705,-7.32988 c -0.62436,-1.62704 -7.296,-28.96101 -7.296,-29.89197 0,-0.94096 0.16297,-1.33877 0.86005,-2.09942 1.47712,-1.61182 1.47125,-1.61236 13.16287,1.21068 8.77539,2.1189 9.92497,2.37025 10.86604,2.37582 1.70343,0.0101 3.49471,-0.72914 5.40583,-2.23087 2.29138,-1.80053 5.33779,-4.04339 13.49375,-9.9345 3.4925,-2.52266 6.49797,-4.77502 6.67883,-5.00525 0.18086,-0.23022 0.51861,-1.05012 0.75055,-1.822 0.98545,-3.27942 -1.1998,-6.67298 -4.72256,-7.33385 -1.39209,-0.26116 -3.52685,0.32598 -4.59493,1.26377 -1.58037,1.38758 -18.71536,12.15263 -19.54314,12.27797 -0.47518,0.0719 -5.20064,-0.95145 -11.77396,-2.5499 -19.95872,-4.8534 -18.67626,-4.59717 -23.01875,-4.5991 -3.25942,-0.001 -4.2941,0.10672 -6.87916,0.71913 -1.67349,0.39645 -8.4998,2.03706 -15.169568,3.64579 -8.880928,2.14206 -12.365176,2.88026 -13.017226,2.75793 -1.407514,-0.26405 -0.811567,0.5281 -11.357812,-15.09708 -5.821701,-8.62535 -6.387487,-9.35798 -7.815813,-10.1206 -1.66826,-0.89073 -4.203458,-0.77072 -5.781669,0.2737 -2.048052,1.35533 -3.051373,3.84225 -2.574862,6.38227 0.105774,0.56383 1.323905,2.64217 2.999363,5.11744 1.55169,2.29241 4.235187,6.25162 5.963328,8.79823 1.728141,2.54662 4.650206,6.88181 6.493478,9.63375 1.843272,2.75195 3.768122,5.47923 4.277445,6.06063 1.151361,1.31429 2.655557,2.01933 4.324345,2.0269 0.731813,0.003 5.740871,-1.07251 11.676084,-2.50773 5.716945,-1.38245 10.718147,-2.51355 11.113797,-2.51355 1.3263,0 2.55177,0.80033 3.09057,2.01838 l 0.50005,1.13045 -2.12326,14.81321 c -1.16779,8.14727 -2.12325,14.99925 -2.12325,15.22663 0,0.37082 1.8705,0.41342 18.15226,0.41342 16.82191,0 18.13989,-0.0323 17.98332,-0.44028 z M 114.3414,155.72957 c -2.70138,-0.75798 -3.96464,-1.27772 -5.90742,-2.43046 -3.65021,-2.16584 -7.02411,-6.07317 -8.627563,-9.99165 -1.291299,-3.15564 -1.472312,-4.16749 -1.472312,-8.23016 0,-2.53476 0.128437,-4.28531 0.378539,-5.15937 3.477176,-12.15201 15.502816,-18.82018 27.197016,-15.08063 3.41065,1.09064 5.72036,2.55223 8.57581,5.42675 2.15738,2.1718 2.7374,2.94841 3.77293,5.05177 1.73405,3.52215 2.32814,6.01308 2.32814,9.76148 0,9.875 -6.49919,18.1926 -16.14244,20.65893 -2.66682,0.68205 -7.65993,0.67877 -10.1027,-0.007 z m 9.05787,-7.12026 c 5.12279,-1.42051 9.26407,-6.19271 10.00657,-11.53107 0.96393,-6.93045 -3.36011,-13.6358 -10.06861,-15.61353 -1.91495,-0.56455 -6.00687,-0.56486 -7.9375,-6e-4 -3.09936,0.90584 -6.25541,3.33595 -8.08491,6.22523 -1.93941,3.06288 -2.5304,7.86947 -1.41731,11.52728 1.36647,4.49045 5.2113,8.25672 9.68419,9.48628 1.92964,0.53044 5.73124,0.48493 7.81757,-0.0936 z M 54.016398,129.63745 c -5.206526,-1.12227 -9.460552,-5.06466 -10.954973,-10.15244 -0.555994,-1.89289 -0.55369,-5.82885 0.0045,-7.70916 0.740931,-2.49584 1.910644,-4.45446 3.757556,-6.29185 9.062895,-9.016152 24.39082,-2.58345 24.39082,10.23615 0,6.71552 -4.800622,12.50702 -11.553086,13.93773 -2.203668,0.46691 -3.404085,0.46256 -5.64483,-0.0204 z m 5.799094,-7.42036 c 1.341842,-0.55893 2.889067,-2.12905 3.622655,-3.67624 2.039241,-4.30093 -0.91534,-9.53474 -5.702605,-10.10172 -4.21511,-0.49922 -8.031017,2.88829 -7.999731,7.10163 0.01924,2.59088 1.00106,4.55457 2.953855,5.90786 2.072608,1.43632 4.813017,1.73185 7.125826,0.76847 z M 169.34044,117.0833 c -5.47255,-1.37188 -9.54548,-5.75817 -10.73783,-11.56398 -1.14357,-5.568248 1.63978,-11.638686 6.74941,-14.720378 2.12862,-1.283798 3.81147,-1.796062 6.40396,-1.949388 2.87829,-0.170229 4.95548,0.219992 7.27604,1.366881 3.43463,1.697494 6.01902,4.650123 7.3072,8.348369 0.8648,2.482756 0.86574,6.292866 0.002,8.928426 -1.28016,3.90715 -4.33664,7.19789 -8.2156,8.84525 -1.79205,0.76107 -2.31234,0.85829 -4.91464,0.91837 -1.60073,0.037 -3.34257,-0.0411 -3.87075,-0.17355 z m 5.98857,-7.31503 c 1.46632,-0.49963 3.21068,-2.10041 3.91943,-3.59684 1.64003,-3.46268 0.17449,-7.731941 -3.25913,-9.494166 -4.15242,-2.131135 -9.33022,0.303855 -10.3043,4.845866 -0.55272,2.57721 0.18316,4.93821 2.12715,6.82479 1.82866,1.77465 4.81883,2.33966 7.51685,1.42035 z M 107.03724,82.994425 c -4.96484,-1.728341 -8.414405,-5.636328 -9.493995,-10.755663 -0.489116,-2.319351 -0.4894,-3.233472 -0.0017,-5.55625 1.704274,-8.117417 9.454335,-13.014737 17.569005,-11.101974 7.53962,1.777215 12.29741,9.717365 10.37587,17.31602 -2.06744,8.175642 -10.58266,12.83632 -18.44915,10.097867 z m 7.12675,-6.812471 c 1.43573,-0.489203 3.28551,-2.174083 3.96617,-3.61261 1.63598,-3.457527 0.17413,-7.731671 -3.26066,-9.533516 -1.31482,-0.689735 -1.65757,-0.754382 -3.57734,-0.674736 -1.87474,0.07778 -2.28361,0.191067 -3.49414,0.968126 -4.32678,2.777452 -4.56567,8.93368 -0.46216,11.90988 0.57882,0.419814 1.4096,0.889346 1.84616,1.043405 1.19683,0.422351 3.58904,0.37407 4.98197,-0.100549 z"
       id="path1" /></g></svg>
